<svg width="390" height="504" viewBox="0 0 390 504" fill="none" xmlns="http://www.w3.org/2000/svg"><path fill-rule="evenodd" clip-rule="evenodd" d="m282.549 195.485 121.112-45.858c33.01 111.854-25.575 232.033-136.678 274.102C155.88 465.797 32.389 414.56-16.964 308.894l121.112-45.858c23.575 39.457 72.803 57.551 117.389 40.669 44.585-16.881 69.483-63.044 61.012-108.22Zm-11.247-30.483L392.264 119.2C343.376 12.535 219.253-39.377 107.633 2.887-3.987 45.151-62.598 166.255-28.577 278.55l120.962-45.802c-9.38-45.687 15.577-92.754 60.695-109.837 45.117-17.084 94.989 1.649 118.222 42.091Z" fill="url(#a)" fill-opacity=".3"/><ellipse cx="187.308" cy="213.308" rx="65.947" ry="65.794" transform="rotate(-20.739 187.308 213.308)" fill="url(#b)" fill-opacity=".3"/><defs><linearGradient id="a" x1="107.633" y1="2.887" x2="266.983" y2="423.729" gradientUnits="userSpaceOnUse"><stop stop-opacity="0"/><stop offset="1" stop-opacity=".8"/></linearGradient><linearGradient id="b" x1="187.308" y1="147.514" x2="187.308" y2="279.102" gradientUnits="userSpaceOnUse"><stop stop-opacity="0"/><stop offset="1" stop-opacity=".8"/></linearGradient></defs></svg>
